PathFileType	4	(X/Y/Z)	2014001\dynamic\2014001_C3_02.trc
DataRate	CameraRate	NumFrames	NumMarkers	Units	OrigDataRate	OrigDataStartFrame	OrigNumFrames
100.000000	100.000000	4	52	mm	100.000000	0	187
Frame#	Time	L_IAS			L_IPS			R_IPS			R_IAS			L_FTC			L_FLE			L_FME			L_FAX			L_TTC			L_FAL			L_TAM			L_FCC			L_FM1			L_FM2			L_FM5			R_FTC			R_FLE			R_FME			R_FAX			R_TTC			R_FAL			R_TAM			R_FCC			R_FM1			R_FM2			R_FM5			CV7			TV10			SXS			SJN			L_SIA			L_SRS			L_SAA			L_SAE			L_HLE			L_HME			L_UOA			L_RSP			L_UHE			L_HM2			L_HM5			R_SIA			R_SRS			R_SAA			R_SAE			R_HLE			R_HME			R_UOA			R_RSP			R_UHE			R_HM2			R_HM5			
		X1	Y1	Z1	X2	Y2	Z2	X3	Y3	Z3	X4	Y4	Z4	X5	Y5	Z5	X6	Y6	Z6	X7	Y7	Z7	X8	Y8	Z8	X9	Y9	Z9	X10	Y10	Z10	X11	Y11	Z11	X12	Y12	Z12	X13	Y13	Z13	X14	Y14	Z14	X15	Y15	Z15	X16	Y16	Z16	X17	Y17	Z17	X18	Y18	Z18	X19	Y19	Z19	X20	Y20	Z20	X21	Y21	Z21	X22	Y22	Z22	X23	Y23	Z23	X24	Y24	Z24	X25	Y25	Z25	X26	Y26	Z26	X27	Y27	Z27	X28	Y28	Z28	X29	Y29	Z29	X30	Y30	Z30	X31	Y31	Z31	X32	Y32	Z32	X33	Y33	Z33	X34	Y34	Z34	X35	Y35	Z35	X36	Y36	Z36	X37	Y37	Z37	X38	Y38	Z38	X39	Y39	Z39	X40	Y40	Z40	X41	Y41	Z41	X42	Y42	Z42	X43	Y43	Z43	X44	Y44	Z44	X45	Y45	Z45	X46	Y46	Z46	X47	Y47	Z47	X48	Y48	Z48	X49	Y49	Z49	X50	Y50	Z50	X51	Y51	Z51	X52	Y52	Z52	

1	0	70.1186447143555	853.8549194335942	1144.885131835938	149.5063018798829	900.9757690429692	1321.204345703125	238.9762115478517	896.510131835938	1325.61328125	308.5909729003907	864.000122070313	1144.860107421875	16.0718002319336	777.8086547851567	1239.229370117188	71.30545043945315	434.938659667969	1328.431640625	181.3058471679688	420.4649047851565	1300.495971679688	73.23612976074222	379.2652282714845	1363.798950195313	114.5588836669922	345.3182983398439	1304.314819335938	135.7292175292969	72.40481567382815	1453.859741210938	221.053436279297	81.02323913574222	1421.025146484375	187.5141601562501	38.18480682373048	1496.396118164063	189.9349975585938	26.47797203063966	1315.914794921875	127.7825012207032	36.41933441162111	1312.331909179688	88.18972778320315	23.54448318481446	1373.449584960938	371.9127502441407	767.4049072265627	1229.029541015625	352.2103271484376	439.4902648925784	1089.274780273438	232.5968475341798	431.0539855957034	1062.839111328125	356.5069885253907	377.1248168945314	1080.847900390625	313.6338195800782	395.1993103027346	1013.138000488282	325.2290344238282	81.29023742675784	957.945434570313	248.1889648437501	116.6552658081055	923.3119506835942	263.3601684570314	27.28815650939943	968.9518432617192	278.1353149414064	116.6185379028321	805.0019531250005	335.6841735839845	117.8058624267579	816.709106445313	365.1695861816407	73.54443359375003	854.2732543945317	205.0750885009767	1364.214233398438	1273.735961914063	181.8564758300782	1136.127319335938	1343.855346679688	197.9852447509767	1133.484497070313	1105.842895507813	209.5908660888673	1296.77197265625	1146.916381835938	83.5009689331055	1181.30908203125	1327.733642578125	105.1614303588868	1309.18310546875	1306.966796875	6.290250778198246	1318.11865234375	1220.6796875	30.38516426086427	1327.788452148438	1183.046875	-77.03033447265628	1051.929443359375	1158.991821289063	-11.63987350463868	1006.4462890625	1191.268920898438	-63.97040176391604	1002.710754394532	1184.643676757813	6.891498088836673	896.5452270507817	979.4251098632817	-65.17401123046878	869.1740112304692	999.5484008789067	16.22946548461915	848.2670288085942	908.319702148438	-57.76713562011722	801.181274414063	960.422729492188	286.7492980957032	1169.883056640625	1360.389892578125	277.6478881835939	1292.530883789063	1326.705810546875	387.7580566406252	1280.5146484375	1267.417602539063	385.1729431152346	1284.465454101563	1215.760375976563	430.2033691406252	987.5046997070317	1302.56982421875	348.5805053710939	976.1276245117192	1311.40673828125	391.8978576660159	969.7844848632817	1328.18603515625	422.1307678222659	770.2996215820317	1225.417236328125	466.6107177734377	773.3908691406255	1295.113647460938	441.074890136719	678.8355102539065	1212.0009765625	462.7000122070315	696.474792480469	1310.990478515625	
2	0.01	70.61006164550784	852.5263061523442	1134.589721679688	150.7622528076172	899.5042114257817	1310.8896484375	240.1234436035157	894.7998046875005	1314.981567382813	309.2083740234376	862.3948364257817	1134.090942382813	16.27080154418946	777.0075073242192	1229.629638671875	71.46057128906253	434.9502868652346	1321.934326171875	181.2040252685547	419.8135986328127	1293.750854492188	73.20699310302737	379.7443237304689	1357.949096679688	114.5025253295899	344.7504272460939	1298.978271484375	135.0971679687501	74.03718566894534	1453.085571289063	220.6164398193361	82.37053680419925	1420.386108398438	186.8291015625001	40.59716796875001	1496.198852539063	189.7259216308594	26.673152923584	1315.950927734375	127.5864715576172	36.45260620117189	1312.136840820313	88.00595855712893	23.53242111206055	1373.336303710938	372.5786437988282	765.6705322265627	1218.021728515625	351.5207519531251	438.5559997558596	1077.12890625	231.9845123291017	430.7951354980471	1051.1123046875	355.6080017089845	376.0826721191407	1068.696655273438	312.4363098144532	394.2429199218752	1001.314697265625	323.2460937500001	80.21379852294925	947.2727661132817	246.0484619140626	115.5253143310547	912.8229370117192	261.3990173339845	26.54299163818361	958.9264526367192	275.3457031250001	114.7736587524415	794.3935546875005	333.0085754394532	115.7363662719727	805.570434570313	362.391571044922	71.40930175781253	843.2048339843755	206.4767303466798	1362.661499023438	1263.4462890625	183.0866088867188	1134.619018554688	1333.709228515625	199.1483612060548	1131.796020507813	1095.594970703125	210.9631347656251	1295.044067382813	1136.68310546875	84.92375946044925	1179.89111328125	1317.720947265625	106.538932800293	1307.79443359375	1296.6552734375	7.609616756439213	1316.5048828125	1210.36767578125	31.7406635284424	1326.05810546875	1172.723022460938	-75.92305755615237	1050.260009765625	1149.478393554688	-10.69594192504883	1004.780151367188	1182.144165039063	-63.03492355346683	1001.100280761719	1175.231323242188	7.577117919921879	893.5469360351567	970.899047851563	-64.567008972168	866.518676757813	991.0568847656255	16.8114414215088	844.9376831054692	900.0200805664067	-57.3202934265137	798.2721557617192	952.296752929688	287.8361816406251	1168.166015625	1350.324096679688	278.9441223144532	1290.9560546875	1316.51513671875	389.1419677734377	1278.598022460938	1257.246826171875	386.5299072265627	1282.476684570313	1205.650146484375	430.903991699219	985.3999023437505	1292.460083007813	349.2549743652345	974.2063598632817	1301.259643554688	392.4912109375002	967.7966918945317	1318.024658203125	422.7037658691409	768.0982055664067	1215.722290039063	466.989196777344	771.2380981445317	1285.55712890625	441.673767089844	676.6534423828127	1202.437866210938	462.9583740234377	694.349548339844	1301.586181640625	
3	0.02	71.18071746826175	851.3146972656255	1124.088623046875	152.1033172607422	898.154418945313	1300.294311523438	241.3400421142579	893.2500610351567	1303.956420898438	309.9075012207032	861.1176147460942	1123.004638671875	16.60987091064454	776.297973632813	1219.796630859375	71.63704681396487	435.0802307128909	1315.075439453125	181.1409759521485	419.2447814941409	1286.644653320313	73.19489288330081	380.3604125976564	1351.77978515625	114.4383087158204	344.2759399414064	1293.34130859375	134.3502655029297	75.93315124511722	1452.237548828125	220.0141601562501	84.00690460205081	1419.665283203125	186.0007019042969	43.37450027465822	1495.970581054688	189.4607238769532	26.91544914245607	1315.93310546875	127.320541381836	36.5054168701172	1311.865112304688	87.79350280761722	23.51221084594727	1373.163330078125	373.3540344238282	764.2574462890627	1206.64892578125	350.909393310547	437.9171447753909	1064.617065429688	231.5144653320314	430.8125305175784	1039.07958984375	354.8077087402345	375.2283325195314	1056.435302734375	311.2063903808595	393.160827636719	989.3860473632817	321.2108154296876	78.69464111328128	938.654907226563	243.7920379638673	113.6169967651368	904.1824340820317	259.4559631347657	25.50440788269044	951.4433593750005	272.4431762695314	111.2526321411133	785.7196655273442	330.218963623047	112.1578826904297	796.3501586914067	359.551483154297	68.15180206298831	834.4115600585942	207.9991302490236	1361.255615234375	1253.111206054688	184.4239196777344	1133.1875	1323.361083984375	200.3925781250001	1130.310302734375	1085.208618164063	212.4009704589845	1293.503051757813	1126.378295898438	86.52261352539065	1178.593505859375	1307.691284179688	108.0822677612305	1306.559936523438	1286.337646484375	9.037015914916996	1315.00048828125	1200.118896484375	33.16912078857423	1324.447143554688	1162.425170898438	-74.61597442626956	1048.624389648438	1140.114624023438	-9.50856971740723	1003.218994140625	1173.186645507813	-61.83171844482425	999.6127929687505	1165.962646484375	8.217074394226078	890.1893920898442	962.7941284179692	-64.00441741943362	863.579223632813	983.0972290039067	17.25939559936524	841.0736694335942	892.244018554688	-56.99162292480472	794.9957885742192	944.8682250976567	289.1235351562501	1166.593994140625	1340.097412109375	280.4210815429689	1289.528442382813	1306.202270507813	390.6789245605471	1276.856811523438	1246.836059570313	387.996520996094	1280.657836914063	1195.338989257813	431.7326660156252	983.4439086914067	1282.027221679688	350.0596923828126	972.4616088867192	1290.869995117188	393.2343750000002	965.9713745117192	1307.577758789063	423.2927856445315	766.0382080078127	1205.757202148438	467.4532775878909	769.228637695313	1275.689331054688	442.271179199219	674.613952636719	1192.60009765625	463.3118286132815	692.3684082031252	1291.850708007813	
4	0.03	71.83340454101565	850.238891601563	1113.355712890625	153.5245361328126	896.960571289063	1289.396728515625	242.6341705322267	891.911010742188	1292.541381835938	310.6774902343751	860.2020874023442	1111.576538085938	17.09554290771485	775.7014160156255	1209.71337890625	71.81318664550784	435.341003417969	1307.829345703125	181.1155700683594	418.767028808594	1279.155639648438	73.19264984130862	381.1331176757814	1345.279418945313	114.3424453735352	343.9122924804689	1287.393310546875	133.4872741699219	78.12731933593753	1451.303955078125	219.2195892333986	85.95713043212893	1418.820556640625	185.0360260009766	46.56086349487306	1495.681884765625	189.1349639892579	27.19625282287599	1315.857788085938	126.9796905517579	36.56410980224611	1311.522338867188	87.56160736083987	23.47913932800294	1372.936767578125	374.2460937500001	763.209655761719	1194.881713867188	350.3969726562501	437.5608825683596	1051.839965820313	231.184295654297	431.0616455078127	1026.880859375	354.1433410644532	374.5642700195314	1044.099731445313	309.9598083496095	392.0010070800784	977.4052734375005	319.225067138672	76.83244323730472	931.766235351563	241.5104217529298	111.058708190918	897.1255493164067	257.6385192871095	24.27373123168947	946.1463012695317	269.4536743164064	106.2655639648438	778.6997680664067	327.3532714843751	107.2521438598633	788.7411499023442	356.7325744628907	63.9532279968262	827.5518188476567	209.6398162841798	1360.021850585938	1242.744384765625	185.8651733398438	1131.847290039063	1312.796508789063	201.7160797119142	1129.075073242188	1074.67529296875	213.9018707275392	1292.192016601563	1116.009155273438	88.29608154296878	1177.432250976563	1297.638427734375	109.789421081543	1305.500732421875	1276.028686523438	10.57255458831787	1313.63916015625	1189.951171875	34.66844558715822	1322.996704101563	1152.169799804688	-73.09795379638675	1047.06640625	1130.899047851563	-8.061194419860843	1001.8046875	1164.374633789063	-60.34315490722659	998.2939453125005	1156.835083007813	8.806130409240726	886.5150756835942	955.121948242188	-63.4900932312012	860.4008789062505	975.690307617188	17.56078910827637	836.7106933593755	885.013549804688	-56.79219818115237	791.4040527343755	938.164184570313	290.6070556640626	1165.179321289063	1329.69580078125	282.075408935547	1288.265502929688	1295.772827148438	392.3592529296877	1275.31884765625	1236.19921875	389.5708312988284	1279.046142578125	1184.835327148438	432.6848449707034	981.674194335938	1271.279663085938	350.9906311035157	970.927124023438	1280.233276367188	394.124206542969	964.3436889648442	1296.846313476563	423.8956298828127	764.158874511719	1195.515869140625	468.004089355469	767.4004516601565	1265.5048828125	442.8588562011721	672.7526855468752	1182.484252929688	463.7620239257815	690.570007324219	1281.782348632813	
